<mxfile host="65bd71144e">
    <diagram id="NQ8C6YZTt6mcr_k8dYG5" name="__process_picture()">
        <mxGraphModel dx="1074" dy="521" grid="1" gridSize="10" guides="1" tooltips="1" connect="1" arrows="1" fold="1" page="1" pageScale="1" pageWidth="827" pageHeight="1169" math="0" shadow="0">
            <root>
                <mxCell id="o7XjQStySnBTKkAdgTy3-0"/>
                <mxCell id="o7XjQStySnBTKkAdgTy3-1" parent="o7XjQStySnBTKkAdgTy3-0"/>
                <mxCell id="SrO7Xi9fvuJ-vgtuY18P-0" value="" style="ellipse;html=1;shape=startState;fillColor=#000000;strokeColor=#ff0000;" parent="o7XjQStySnBTKkAdgTy3-1" vertex="1">
                    <mxGeometry x="365" y="210" width="30" height="30" as="geometry"/>
                </mxCell>
                <mxCell id="SrO7Xi9fvuJ-vgtuY18P-3" value="&lt;span style=&quot;text-align: left&quot;&gt;__generate_pictures()&lt;/span&gt;" style="text;html=1;align=center;verticalAlign=middle;resizable=0;points=[];autosize=1;strokeColor=none;fillColor=none;" parent="o7XjQStySnBTKkAdgTy3-1" vertex="1">
                    <mxGeometry x="315" y="190" width="130" height="20" as="geometry"/>
                </mxCell>
                <mxCell id="SrO7Xi9fvuJ-vgtuY18P-8" style="edgeStyle=elbowEdgeStyle;html=1;entryX=0;entryY=0.5;entryDx=0;entryDy=0;startArrow=classic;startFill=1;endArrow=none;endFill=0;strokeColor=#FF0000;" parent="o7XjQStySnBTKkAdgTy3-1" source="SrO7Xi9fvuJ-vgtuY18P-4" target="SrO7Xi9fvuJ-vgtuY18P-0" edge="1">
                    <mxGeometry relative="1" as="geometry">
                        <Array as="points">
                            <mxPoint x="140" y="280"/>
                            <mxPoint x="170" y="260"/>
                        </Array>
                        <mxPoint x="280" y="220" as="targetPoint"/>
                    </mxGeometry>
                </mxCell>
                <mxCell id="4nPWI2hymKt95uSj4Esr-2" style="edgeStyle=elbowEdgeStyle;html=1;entryX=0;entryY=0.5;entryDx=0;entryDy=0;startArrow=none;startFill=0;endArrow=classic;endFill=1;strokeColor=#FF0000;" parent="o7XjQStySnBTKkAdgTy3-1" source="SrO7Xi9fvuJ-vgtuY18P-4" target="4nPWI2hymKt95uSj4Esr-0" edge="1">
                    <mxGeometry relative="1" as="geometry">
                        <Array as="points">
                            <mxPoint x="140" y="400"/>
                        </Array>
                    </mxGeometry>
                </mxCell>
                <mxCell id="SrO7Xi9fvuJ-vgtuY18P-4" value="&lt;span style=&quot;text-align: left&quot;&gt;thread zoom 2X&lt;/span&gt;" style="rounded=1;whiteSpace=wrap;html=1;arcSize=40;fontColor=#000000;fillColor=#ffffc0;strokeColor=#ff0000;" parent="o7XjQStySnBTKkAdgTy3-1" vertex="1">
                    <mxGeometry x="40" y="320" width="200" height="40" as="geometry"/>
                </mxCell>
                <mxCell id="SrO7Xi9fvuJ-vgtuY18P-9" style="edgeStyle=elbowEdgeStyle;html=1;entryX=1;entryY=0.5;entryDx=0;entryDy=0;startArrow=classic;startFill=1;endArrow=none;endFill=0;strokeColor=#FF0000;exitX=0.5;exitY=0;exitDx=0;exitDy=0;" parent="o7XjQStySnBTKkAdgTy3-1" source="SrO7Xi9fvuJ-vgtuY18P-5" target="SrO7Xi9fvuJ-vgtuY18P-0" edge="1">
                    <mxGeometry relative="1" as="geometry">
                        <Array as="points">
                            <mxPoint x="620" y="280"/>
                        </Array>
                        <mxPoint x="480" y="220" as="targetPoint"/>
                    </mxGeometry>
                </mxCell>
                <mxCell id="4nPWI2hymKt95uSj4Esr-3" style="edgeStyle=elbowEdgeStyle;html=1;entryX=1;entryY=0.5;entryDx=0;entryDy=0;startArrow=none;startFill=0;endArrow=classic;endFill=1;strokeColor=#FF0000;" parent="o7XjQStySnBTKkAdgTy3-1" source="SrO7Xi9fvuJ-vgtuY18P-5" target="4nPWI2hymKt95uSj4Esr-0" edge="1">
                    <mxGeometry relative="1" as="geometry">
                        <Array as="points">
                            <mxPoint x="620" y="390"/>
                        </Array>
                    </mxGeometry>
                </mxCell>
                <mxCell id="SrO7Xi9fvuJ-vgtuY18P-5" value="&lt;span style=&quot;text-align: left&quot;&gt;thread&amp;nbsp;zoom 4X&lt;/span&gt;" style="rounded=1;whiteSpace=wrap;html=1;arcSize=40;fontColor=#000000;fillColor=#ffffc0;strokeColor=#ff0000;" parent="o7XjQStySnBTKkAdgTy3-1" vertex="1">
                    <mxGeometry x="520" y="320" width="200" height="40" as="geometry"/>
                </mxCell>
                <mxCell id="SrO7Xi9fvuJ-vgtuY18P-7" style="edgeStyle=orthogonalEdgeStyle;curved=1;html=1;entryX=0.5;entryY=1;entryDx=0;entryDy=0;startArrow=classic;startFill=1;endArrow=none;endFill=0;strokeColor=#FF0000;" parent="o7XjQStySnBTKkAdgTy3-1" source="SrO7Xi9fvuJ-vgtuY18P-6" target="SrO7Xi9fvuJ-vgtuY18P-0" edge="1">
                    <mxGeometry relative="1" as="geometry">
                        <mxPoint x="380" y="240" as="targetPoint"/>
                    </mxGeometry>
                </mxCell>
                <mxCell id="4nPWI2hymKt95uSj4Esr-1" style="edgeStyle=elbowEdgeStyle;html=1;exitX=0.5;exitY=1;exitDx=0;exitDy=0;entryX=0.5;entryY=0;entryDx=0;entryDy=0;startArrow=none;startFill=0;endArrow=classic;endFill=1;strokeColor=#FF0000;" parent="o7XjQStySnBTKkAdgTy3-1" source="SrO7Xi9fvuJ-vgtuY18P-6" target="4nPWI2hymKt95uSj4Esr-0" edge="1">
                    <mxGeometry relative="1" as="geometry"/>
                </mxCell>
                <mxCell id="SrO7Xi9fvuJ-vgtuY18P-6" value="&lt;span style=&quot;text-align: left&quot;&gt;thread zoom 3X&lt;/span&gt;" style="rounded=1;whiteSpace=wrap;html=1;arcSize=40;fontColor=#000000;fillColor=#ffffc0;strokeColor=#ff0000;" parent="o7XjQStySnBTKkAdgTy3-1" vertex="1">
                    <mxGeometry x="280" y="320" width="200" height="40" as="geometry"/>
                </mxCell>
                <mxCell id="4nPWI2hymKt95uSj4Esr-0" value="" style="ellipse;html=1;shape=endState;fillColor=#000000;strokeColor=#ff0000;" parent="o7XjQStySnBTKkAdgTy3-1" vertex="1">
                    <mxGeometry x="365" y="410" width="30" height="30" as="geometry"/>
                </mxCell>
            </root>
        </mxGraphModel>
    </diagram>
    <diagram id="Umb4qV9Q7joxZF1_kn6b" name="Global Architecture">
        <mxGraphModel dx="990" dy="691" grid="1" gridSize="10" guides="1" tooltips="1" connect="1" arrows="1" fold="1" page="1" pageScale="1" pageWidth="827" pageHeight="1169" math="0" shadow="0">
            <root>
                <mxCell id="0"/>
                <mxCell id="1" parent="0"/>
                <mxCell id="9" style="edgeStyle=none;html=1;startArrow=classic;startFill=1;" parent="1" source="7" target="8" edge="1">
                    <mxGeometry relative="1" as="geometry"/>
                </mxCell>
                <mxCell id="10" value="HTTP" style="edgeLabel;html=1;align=center;verticalAlign=middle;resizable=0;points=[];" parent="9" vertex="1" connectable="0">
                    <mxGeometry x="-0.3727" y="-1" relative="1" as="geometry">
                        <mxPoint as="offset"/>
                    </mxGeometry>
                </mxCell>
                <mxCell id="7" value="User" style="points=[];aspect=fixed;html=1;align=center;shadow=0;dashed=0;image;image=img/lib/allied_telesis/computer_and_terminals/Personal_Computer.svg;" parent="1" vertex="1">
                    <mxGeometry x="144" y="437.24" width="95.6" height="129.56" as="geometry"/>
                </mxCell>
                <mxCell id="8" value="VMagnify server" style="image;html=1;image=img/lib/clip_art/computers/Server_128x128.png" parent="1" vertex="1">
                    <mxGeometry x="480" y="441.8" width="200" height="120" as="geometry"/>
                </mxCell>
            </root>
        </mxGraphModel>
    </diagram>
    <diagram id="L5cocBI39ZsW0s459yIp" name="process_uploaded_picture()">
        <mxGraphModel dx="396" dy="276" grid="1" gridSize="10" guides="1" tooltips="1" connect="1" arrows="1" fold="1" page="1" pageScale="1" pageWidth="827" pageHeight="1169" math="0" shadow="0">
            <root>
                <mxCell id="AcEDovaewm3Qbmrhu6Q4-0"/>
                <mxCell id="AcEDovaewm3Qbmrhu6Q4-1" parent="AcEDovaewm3Qbmrhu6Q4-0"/>
                <mxCell id="s4J1PNSF8YR8wlfG6eTc-0" value="" style="ellipse;html=1;shape=startState;fillColor=#000000;strokeColor=#ff0000;" vertex="1" parent="AcEDovaewm3Qbmrhu6Q4-1">
                    <mxGeometry x="245" y="370" width="30" height="30" as="geometry"/>
                </mxCell>
                <mxCell id="s4J1PNSF8YR8wlfG6eTc-4" value="&lt;span style=&quot;text-align: left&quot;&gt;process_uploaded_picture(file:string) : bool&lt;/span&gt;" style="text;html=1;align=center;verticalAlign=middle;resizable=0;points=[];autosize=1;strokeColor=none;fillColor=none;" vertex="1" parent="AcEDovaewm3Qbmrhu6Q4-1">
                    <mxGeometry x="140" y="340" width="240" height="20" as="geometry"/>
                </mxCell>
                <mxCell id="s4J1PNSF8YR8wlfG6eTc-7" value="" style="ellipse;html=1;shape=endState;fillColor=#000000;strokeColor=#ff0000;" vertex="1" parent="AcEDovaewm3Qbmrhu6Q4-1">
                    <mxGeometry x="726" y="805" width="30" height="30" as="geometry"/>
                </mxCell>
                <mxCell id="KM4g0bSWTcc0E6VetSVF-0" style="edgeStyle=orthogonalEdgeStyle;curved=1;html=1;startArrow=classic;startFill=1;endArrow=none;endFill=0;strokeColor=#FF0000;" edge="1" parent="AcEDovaewm3Qbmrhu6Q4-1" source="s4J1PNSF8YR8wlfG6eTc-8" target="s4J1PNSF8YR8wlfG6eTc-0">
                    <mxGeometry relative="1" as="geometry"/>
                </mxCell>
                <mxCell id="s4J1PNSF8YR8wlfG6eTc-8" value="&lt;span style=&quot;text-align: left&quot;&gt;__upload_picture(url:string)&lt;/span&gt;" style="rounded=1;whiteSpace=wrap;html=1;arcSize=40;fontColor=#000000;fillColor=#ffffc0;strokeColor=#ff0000;" vertex="1" parent="AcEDovaewm3Qbmrhu6Q4-1">
                    <mxGeometry x="160" y="440" width="200" height="40" as="geometry"/>
                </mxCell>
                <mxCell id="s4J1PNSF8YR8wlfG6eTc-9" value="Return value" style="rhombus;whiteSpace=wrap;html=1;fillColor=#ffffc0;strokeColor=#ff0000;" vertex="1" parent="AcEDovaewm3Qbmrhu6Q4-1">
                    <mxGeometry x="180" y="540" width="160" height="80" as="geometry"/>
                </mxCell>
                <mxCell id="s4J1PNSF8YR8wlfG6eTc-10" value="false" style="edgeStyle=orthogonalEdgeStyle;html=1;align=left;verticalAlign=bottom;endArrow=open;endSize=8;strokeColor=#ff0000;" edge="1" parent="AcEDovaewm3Qbmrhu6Q4-1" source="s4J1PNSF8YR8wlfG6eTc-9">
                    <mxGeometry x="-1" relative="1" as="geometry">
                        <mxPoint x="440" y="820" as="targetPoint"/>
                        <mxPoint x="350" y="270" as="sourcePoint"/>
                        <Array as="points">
                            <mxPoint x="400" y="580"/>
                            <mxPoint x="400" y="820"/>
                        </Array>
                    </mxGeometry>
                </mxCell>
                <mxCell id="s4J1PNSF8YR8wlfG6eTc-11" value="Return false" style="text;html=1;align=center;verticalAlign=middle;resizable=0;points=[];autosize=1;strokeColor=none;fillColor=none;" vertex="1" parent="AcEDovaewm3Qbmrhu6Q4-1">
                    <mxGeometry x="700" y="780" width="80" height="20" as="geometry"/>
                </mxCell>
                <mxCell id="s4J1PNSF8YR8wlfG6eTc-12" value="bool" style="edgeStyle=orthogonalEdgeStyle;html=1;verticalAlign=bottom;endArrow=open;endSize=8;strokeColor=#ff0000;entryX=0.5;entryY=0;entryDx=0;entryDy=0;exitX=0.5;exitY=1;exitDx=0;exitDy=0;" edge="1" parent="AcEDovaewm3Qbmrhu6Q4-1" source="s4J1PNSF8YR8wlfG6eTc-8" target="s4J1PNSF8YR8wlfG6eTc-9">
                    <mxGeometry relative="1" as="geometry">
                        <mxPoint x="304" y="310" as="targetPoint"/>
                        <mxPoint x="304" y="250" as="sourcePoint"/>
                    </mxGeometry>
                </mxCell>
                <mxCell id="s4J1PNSF8YR8wlfG6eTc-13" value="&lt;span style=&quot;text-align: left&quot;&gt;__validate_picture(file : string)&lt;/span&gt;" style="rounded=1;whiteSpace=wrap;html=1;arcSize=40;fontColor=#000000;fillColor=#ffffc0;strokeColor=#ff0000;" vertex="1" parent="AcEDovaewm3Qbmrhu6Q4-1">
                    <mxGeometry x="160" y="680" width="200" height="40" as="geometry"/>
                </mxCell>
                <mxCell id="s4J1PNSF8YR8wlfG6eTc-14" value="true" style="edgeStyle=orthogonalEdgeStyle;html=1;align=left;verticalAlign=top;endArrow=open;endSize=8;strokeColor=#ff0000;entryX=0.5;entryY=0;entryDx=0;entryDy=0;exitX=0.5;exitY=1;exitDx=0;exitDy=0;" edge="1" parent="AcEDovaewm3Qbmrhu6Q4-1" source="s4J1PNSF8YR8wlfG6eTc-9" target="s4J1PNSF8YR8wlfG6eTc-13">
                    <mxGeometry x="-1" relative="1" as="geometry">
                        <mxPoint x="270" y="450" as="targetPoint"/>
                        <mxPoint x="270" y="390" as="sourcePoint"/>
                        <Array as="points">
                            <mxPoint x="260" y="670"/>
                            <mxPoint x="260" y="670"/>
                        </Array>
                    </mxGeometry>
                </mxCell>
                <mxCell id="s4J1PNSF8YR8wlfG6eTc-15" value="Return value" style="rhombus;whiteSpace=wrap;html=1;fillColor=#ffffc0;strokeColor=#ff0000;" vertex="1" parent="AcEDovaewm3Qbmrhu6Q4-1">
                    <mxGeometry x="180" y="780" width="160" height="80" as="geometry"/>
                </mxCell>
                <mxCell id="s4J1PNSF8YR8wlfG6eTc-16" value="false" style="edgeStyle=orthogonalEdgeStyle;html=1;align=left;verticalAlign=bottom;endArrow=open;endSize=8;strokeColor=#ff0000;entryX=0;entryY=0.5;entryDx=0;entryDy=0;" edge="1" parent="AcEDovaewm3Qbmrhu6Q4-1" source="s4J1PNSF8YR8wlfG6eTc-15" target="s4J1PNSF8YR8wlfG6eTc-24">
                    <mxGeometry x="-1" relative="1" as="geometry">
                        <mxPoint x="430" y="820" as="targetPoint"/>
                        <mxPoint x="350" y="510" as="sourcePoint"/>
                    </mxGeometry>
                </mxCell>
                <mxCell id="s4J1PNSF8YR8wlfG6eTc-17" value="bool" style="edgeStyle=orthogonalEdgeStyle;html=1;verticalAlign=bottom;endArrow=open;endSize=8;strokeColor=#ff0000;entryX=0.5;entryY=0;entryDx=0;entryDy=0;" edge="1" parent="AcEDovaewm3Qbmrhu6Q4-1" source="s4J1PNSF8YR8wlfG6eTc-13" target="s4J1PNSF8YR8wlfG6eTc-15">
                    <mxGeometry relative="1" as="geometry">
                        <mxPoint x="304" y="550" as="targetPoint"/>
                        <mxPoint x="260" y="720" as="sourcePoint"/>
                    </mxGeometry>
                </mxCell>
                <mxCell id="s4J1PNSF8YR8wlfG6eTc-18" value="true" style="edgeStyle=orthogonalEdgeStyle;html=1;align=left;verticalAlign=top;endArrow=open;endSize=8;strokeColor=#ff0000;exitX=0.5;exitY=1;exitDx=0;exitDy=0;" edge="1" parent="AcEDovaewm3Qbmrhu6Q4-1" source="s4J1PNSF8YR8wlfG6eTc-15">
                    <mxGeometry x="-1" relative="1" as="geometry">
                        <mxPoint x="260" y="920" as="targetPoint"/>
                        <mxPoint x="270" y="630" as="sourcePoint"/>
                        <Array as="points">
                            <mxPoint x="260" y="910"/>
                            <mxPoint x="260" y="910"/>
                        </Array>
                    </mxGeometry>
                </mxCell>
                <mxCell id="s4J1PNSF8YR8wlfG6eTc-19" value="&lt;span style=&quot;text-align: left&quot;&gt;__process_picture(file : string)&lt;/span&gt;" style="rounded=1;whiteSpace=wrap;html=1;arcSize=40;fontColor=#000000;fillColor=#ffffc0;strokeColor=#ff0000;" vertex="1" parent="AcEDovaewm3Qbmrhu6Q4-1">
                    <mxGeometry x="160" y="920" width="200" height="40" as="geometry"/>
                </mxCell>
                <mxCell id="s4J1PNSF8YR8wlfG6eTc-21" value="" style="ellipse;html=1;shape=endState;fillColor=#000000;strokeColor=#ff0000;" vertex="1" parent="AcEDovaewm3Qbmrhu6Q4-1">
                    <mxGeometry x="444" y="1005" width="30" height="30" as="geometry"/>
                </mxCell>
                <mxCell id="s4J1PNSF8YR8wlfG6eTc-22" value="" style="edgeStyle=orthogonalEdgeStyle;html=1;align=left;verticalAlign=top;endArrow=open;endSize=8;strokeColor=#ff0000;exitX=0.5;exitY=1;exitDx=0;exitDy=0;entryX=0;entryY=0.5;entryDx=0;entryDy=0;" edge="1" parent="AcEDovaewm3Qbmrhu6Q4-1" source="s4J1PNSF8YR8wlfG6eTc-19" target="s4J1PNSF8YR8wlfG6eTc-21">
                    <mxGeometry x="-1" relative="1" as="geometry">
                        <mxPoint x="245" y="1060" as="targetPoint"/>
                        <mxPoint x="245" y="1000" as="sourcePoint"/>
                        <Array as="points">
                            <mxPoint x="260" y="1020"/>
                        </Array>
                    </mxGeometry>
                </mxCell>
                <mxCell id="s4J1PNSF8YR8wlfG6eTc-23" style="edgeStyle=orthogonalEdgeStyle;curved=1;html=1;startArrow=classic;startFill=1;endArrow=none;endFill=0;strokeColor=#FF0000;exitX=0;exitY=0.5;exitDx=0;exitDy=0;entryX=1;entryY=0.5;entryDx=0;entryDy=0;" edge="1" parent="AcEDovaewm3Qbmrhu6Q4-1" source="s4J1PNSF8YR8wlfG6eTc-7" target="s4J1PNSF8YR8wlfG6eTc-24">
                    <mxGeometry relative="1" as="geometry">
                        <mxPoint x="690" y="740" as="targetPoint"/>
                    </mxGeometry>
                </mxCell>
                <mxCell id="s4J1PNSF8YR8wlfG6eTc-24" value="&lt;span style=&quot;text-align: left&quot;&gt;__delete_picture(file : string)&lt;/span&gt;" style="rounded=1;whiteSpace=wrap;html=1;arcSize=40;fontColor=#000000;fillColor=#ffffc0;strokeColor=#ff0000;" vertex="1" parent="AcEDovaewm3Qbmrhu6Q4-1">
                    <mxGeometry x="440" y="800" width="200" height="40" as="geometry"/>
                </mxCell>
            </root>
        </mxGraphModel>
    </diagram>
</mxfile>